<?xml version="1.0" standalone="no"?>
<!DOCTYPE svg PUBLIC "-//W3C//DTD SVG 20010904//EN"
 "http://www.w3.org/TR/2001/REC-SVG-20010904/DTD/svg10.dtd">
<svg version="1.0" xmlns="http://www.w3.org/2000/svg"
 width="600.000000pt" height="600.000000pt" viewBox="0 0 600.000000 600.000000"
 preserveAspectRatio="xMidYMid meet">

<g transform="translate(0.000000,600.000000) scale(0.100000,-0.100000)"
fill="#000000" stroke="none">
<path d="M1502 5413 c-26 -59 -23 -210 6 -295 80 -232 298 -373 547 -354 74 6
78 5 60 -9 -60 -47 -225 -68 -344 -44 -55 11 -57 11 -158 -34 -427 -190 -753
-505 -952 -917 -107 -222 -167 -448 -178 -670 -5 -111 10 -260 26 -260 4 0 15
25 25 56 42 134 143 309 221 384 l36 35 -36 -79 c-124 -274 -183 -570 -172
-871 12 -330 110 -630 277 -854 61 -80 157 -178 147 -148 -22 60 -41 197 -41
292 -1 113 10 225 22 225 4 0 17 -47 30 -105 68 -313 207 -585 399 -781 212
-215 476 -345 822 -405 63 -10 116 -17 118 -15 2 2 -16 15 -40 29 -94 55 -199
172 -256 284 -24 48 -16 55 19 18 36 -39 169 -120 257 -159 477 -208 1134
-206 1386 4 42 36 40 50 -6 50 -51 0 -248 72 -328 120 -156 92 -323 290 -388
459 -149 387 -79 751 200 1046 l57 60 -151 0 c-126 1 -166 5 -235 23 -470 127
-798 515 -817 967 l-5 100 14 -75 c55 -308 184 -537 388 -693 201 -154 437
-230 708 -229 154 0 231 13 407 72 332 109 630 58 921 -158 111 -82 186 -106
315 -100 81 3 102 8 167 39 237 113 334 392 215 618 -20 37 -46 108 -60 159
-33 124 -103 261 -126 247 -5 -4 -9 -22 -9 -42 0 -20 -10 -88 -22 -150 -25
-127 -22 -141 32 -159 26 -8 29 -12 15 -17 -22 -9 -57 -8 -72 1 -7 4 -20 48
-28 97 -9 49 -29 116 -45 149 -31 66 -95 136 -108 120 -5 -5 -16 -58 -26 -119
-10 -60 -29 -145 -42 -188 -29 -89 -7 -84 -184 -37 -169 46 -229 58 -366 75
-71 9 -157 22 -192 30 -128 30 -207 91 -219 172 l-5 38 30 -47 c39 -60 96
-101 175 -127 66 -22 147 -37 147 -28 0 3 -26 24 -57 46 -68 48 -110 107 -119
167 -14 95 19 233 81 340 37 64 155 186 228 235 59 41 73 63 35 54 -13 -3 -45
-9 -71 -15 -125 -27 -254 -104 -347 -207 l-52 -58 27 51 c79 150 209 249 382
288 92 21 303 21 438 1 168 -25 152 -16 160 -98 4 -40 2 -117 -4 -171 -14
-119 -9 -127 51 -100 70 31 159 127 203 219 22 44 40 81 40 82 1 2 28 -1 61
-6 43 -6 49 -9 24 -10 l-35 -1 0 -135 c-1 -100 2 -135 11 -135 23 0 99 65 131
113 17 25 41 77 54 114 12 38 35 84 52 102 68 79 137 275 140 401 2 95 -17
126 -129 211 -98 74 -178 162 -151 167 7 2 48 -18 90 -42 96 -57 173 -96 188
-96 21 0 0 83 -29 114 -66 69 -234 171 -402 243 -166 71 -305 102 -500 113
-189 10 -252 24 -516 110 -259 84 -313 94 -508 87 -170 -6 -230 -16 -471 -82
-222 -60 -288 -69 -510 -69 -162 0 -225 4 -330 22 -165 29 -336 71 -542 133
-89 27 -167 49 -173 49 -6 0 -18 -17 -28 -37z m2200 -224 c41 -11 187 -106
195 -126 3 -8 -2 -33 -11 -57 l-17 -44 -62 20 c-34 10 -97 22 -139 25 -67 5
-77 8 -82 27 -10 36 -7 66 10 97 18 37 6 58 -35 60 l-26 1 25 8 c27 10 83 5
142 -11z m351 -167 l62 -7 -49 -30 c-36 -21 -67 -30 -110 -33 l-60 -5 40 46
c21 25 42 43 47 40 4 -2 35 -7 70 -11z"/>
</g>
</svg>
